<svg width="1080" height="1919" xmlns="http://www.w3.org/2000/svg" style="vector-effect: non-scaling-stroke;" stroke="null">
 <!-- Created with Method Draw - http://github.com/duopixel/Method-Draw/ -->

 <g>
  <title>background</title>
  <rect fill="#ffffff" id="canvas_background" height="1921" width="1082" y="-1" x="-1"/>
 </g>
 <g stroke="null">
  <title stroke="null">Layer 1</title>
  <ellipse stroke="#000" ry="726.847862" rx="897.229794" id="svg_1" cy="1392.860779" cx="539.999975" stroke-width="1.5" fill="none"/>
  <path id="svg_5" d="m107.499713,1292.491286" opacity="0.5" stroke-width="1.5" stroke="#000" fill="#fff"/>
  <path stroke="#000" d="m470.432296,1649.974862c0,0 -3.157677,-1.01001 0,-3.448364c3.157638,-2.438354 5.773491,2.438354 8.931089,0c3.157559,-2.438232 3.096579,-5.030273 8.93105,-6.896484c4.12565,-1.31958 4.465564,6.896484 8.931089,6.896484c0,0 4.465525,0 8.93105,0c4.465525,0 4.465525,3.448364 4.465525,3.448364c4.465564,0 -3.591255,-5.685669 13.396614,-13.793091c3.798619,-1.812866 0.00004,3.448242 4.465525,3.448242c4.465485,0 2.048815,-5.839478 4.465564,-10.344849c1.7089,-3.185791 4.465525,-6.896606 8.93105,-10.344849c4.465525,-3.448242 8.93105,-3.448242 8.93105,-3.448242c4.465564,0 13.396614,-3.448364 17.862139,-3.448364c0,0 0.339915,2.128784 4.465525,3.448364c5.83451,1.866211 2.756704,6.634033 4.465564,3.448242c4.83346,-9.010864 9.270965,-11.664429 13.396575,-10.344849c5.83451,1.866211 4.465564,6.896606 4.465564,10.344849c0,3.448242 4.465525,3.448242 8.93105,3.448242c0,0 -1.70894,0.262451 0,3.448364c2.41671,4.505371 9.05052,4.240479 13.396614,3.448242c19.436275,-3.543091 22.327664,-6.896606 22.327664,-6.896606c0,3.448364 1.307966,7.906616 4.465525,10.344849c3.157598,2.438354 8.93105,0 13.396614,0c0,0 4.465525,0 8.93105,0c4.465525,0 5.773531,-1.01001 8.931089,-3.448242c3.157598,-2.438354 5.773412,1.01001 8.93101,3.448242c3.157598,2.438354 5.773531,5.886719 8.931129,3.448364c3.157677,-2.438354 13.396614,-13.793213 17.8621,-13.793213c0,0 4.465564,0 8.93105,0c0,0 4.465564,0 8.931129,0c0,0 4.465485,0 8.93105,0c4.465485,0 8.93105,0 8.93105,0c4.465564,0 13.83363,-6.291138 22.327664,-10.344849c3.798619,-1.812866 13.396614,0 13.396614,3.448364c0,0 8.93105,0 17.8621,-6.896606c0,0 0.437095,2.842896 8.931129,6.896606c3.79854,1.812866 1.307887,-4.458374 4.465485,-6.896606c3.157598,-2.438354 2.756704,3.185791 4.465564,0c4.83342,-9.010742 17.8621,-13.793091 17.8621,-13.793091c4.465564,0 4.805519,8.216187 8.93105,6.896606c5.83455,-1.866211 8.931129,-6.896606 17.862179,-6.896606c0,0 4.465564,-3.448242 8.93105,-10.344849c0,0 1.307966,-5.886597 4.465564,-3.448242c3.157598,2.438232 1.506991,2.379272 8.93105,-6.896606c3.320106,-4.148315 5.773451,-9.334839 8.93105,-6.896606c3.157677,2.438354 0,6.896606 4.465564,6.896606c4.465485,0 8.93105,-6.896606 13.396614,-6.896606c4.465485,0 10.238937,2.438232 13.396535,0c3.157598,-2.438232 -3.157598,-14.803101 0,-17.241333c3.157598,-2.438354 8.931129,0 8.931129,-6.896606c0,-3.448242 -1.368986,-8.762695 4.465485,-6.896484c4.125531,1.31958 0.000079,6.896484 4.465564,6.896484c4.465485,0 2.221835,-13.537231 4.465485,-31.034424c0.44002,-3.431641 4.465564,0 4.465564,0c4.465564,0 1.307887,-1.01001 4.465564,-3.448364c3.157598,-2.438232 5.773451,-2.438354 8.93105,0c3.157677,2.438354 -1.708861,10.082397 0,6.896606c2.41675,-4.505371 10.239016,-11.354736 13.396614,-13.793091c3.157677,-2.438354 0,-6.896606 0,-10.344849c0,-10.344849 4.465485,-10.344849 4.465485,-13.793091c0,-3.448364 -4.605862,-8.317505 4.465564,-20.689697c3.111518,-4.243652 8.93105,-3.448364 8.93105,-6.896606c0,-3.448242 0,-6.896484 0,-6.896484c0,-3.448364 4.465485,-10.344849 0,-10.344849c-8.930971,0 -0.78693,22.46106 8.93105,20.689575c8.692031,-1.584473 0,-10.344727 0,-17.241333c0,-6.896606 2.171407,-6.288818 4.465564,-13.793091c4.103953,-13.424194 0.437095,-23.532593 8.93105,-27.586304c3.798619,-1.812866 1.307966,4.458374 4.465564,6.896606c3.157598,2.438232 8.93105,0 8.93105,-3.448242c0,-3.448364 0,-10.344849 0,-10.344849c0,0 2.756704,0.262451 4.465564,3.448242c2.41667,4.505371 6.636892,0.607788 8.93105,-6.896606c3.077925,-10.068115 4.465564,-10.344849 4.465564,-13.793091c0,-3.448242 0,-10.344849 0,-13.793091c0,-3.448242 0,-6.896606 0,-13.793091c0,-6.896606 0,-10.344849 0,-10.344849c0,-6.896606 0,-10.344849 0,-13.793091c0,-6.896606 0,-10.344849 0,-13.793213c0,0 0,-3.448242 -4.465564,-3.448242c-4.465564,0 -8.93105,0 -8.93105,-3.448242c0,-3.448364 -4.465564,-3.448364 -4.465564,-6.896606c0,-3.448242 3.157598,-7.906616 0,-10.344849c-3.157598,-2.438354 -7.558112,-7.537842 -13.396614,-13.793091c-3.692546,-3.956055 -4.465485,-3.448242 -4.465485,-6.896606c0,-3.448242 -5.773531,-7.906494 -8.931129,-10.344849c-3.157598,-2.438232 0,-6.896484 0,-10.344727c0,-3.448364 1.307966,-4.458374 4.465564,-6.896606c3.157598,-2.438354 4.465564,0 13.396614,0c4.465485,0 5.773451,-1.009888 8.93105,-3.448242c3.157677,-2.438354 8.93105,-6.896606 8.93105,-6.896606c0,-3.448242 0,-6.896606 0,-10.344849c0,-3.448242 -1.307887,-1.01001 -4.465485,-3.448242c-3.157677,-2.438354 -4.047281,-3.804932 -8.931129,-6.896606c-12.451366,-7.882202 -13.396535,-6.896484 -17.8621,-6.896484c-4.465564,0 -10.239016,-2.438354 -13.396614,0c-3.157598,2.438232 -4.465485,3.448242 0,3.448242c0,0 0,0 -4.465485,0c-4.465564,0 -8.931129,0 -13.396614,0c0,0 -4.465564,0 -4.465564,-3.448242c0,0 3.157598,-4.458374 0,-6.896606c-3.157598,-2.438232 -5.773451,-1.009888 -8.93105,-3.448242c-3.157677,-2.438354 3.157598,-4.458374 0,-6.896606c-3.157598,-2.438354 -4.465564,-3.448242 -4.465564,-6.896606c0,-3.448242 -4.465485,-3.448242 -4.465485,-3.448242c-4.465564,0 -5.513328,-3.973267 -8.931129,-10.344849c-2.41667,-4.505371 -4.465406,-6.896484 -13.396535,-13.793091c-4.465564,-3.448242 -8.931129,-3.448242 -8.931129,-3.448242c0,0 -4.465485,0 -8.93105,0c-4.465485,0 -1.307887,-4.458374 -4.465485,-6.896606c-3.157598,-2.438354 -1.307887,-4.458252 -4.465564,-6.896606c-6.315197,-4.876587 -13.396614,0 -17.8621,0c0,0 -4.465564,0 -4.465564,-3.448242c0,-3.448242 0,-6.896484 0,-10.344849c0,0 0,-10.344849 0,-13.793091c0,0 0,-3.448242 0,-10.344849c0,-3.448242 -4.465564,-6.896606 -4.465564,-10.344849c0,-3.448242 0,-6.896484 0,-6.896484c0,-3.448364 3.096658,-5.030396 8.931129,-6.896606c4.12561,-1.31958 10.979865,-1.057129 13.396535,3.448242c1.70894,3.185913 0,3.448364 4.465564,3.448364c0,0 4.465564,0 8.93105,0c4.465564,0 4.465564,0 4.465564,-3.448364c0,-3.448242 4.465485,-10.344849 4.465485,-10.344849c4.465564,-3.448242 4.465564,-6.896484 8.931129,-6.896484c4.465485,0 4.465485,6.896484 4.465485,6.896484c4.465564,0 5.773451,-2.438232 8.93105,0c3.157677,2.438354 0,6.896606 4.465564,6.896606c4.465564,0 8.93105,0 8.93105,3.448242c0,3.448364 0,3.448364 4.465564,3.448364c13.396614,0 13.396614,0 17.8621,0c0,0 3.157598,4.458252 0,6.896484c-3.157598,2.438232 -8.591254,5.577026 -4.465485,6.896606c5.83455,1.866211 9.271004,-5.577026 13.396614,-6.896606c5.834471,-1.866211 4.465485,-6.896484 13.396535,-6.896484c0,0 3.681559,-3.785767 8.931129,-10.344849c2.347747,-2.93335 0,-3.448364 8.93105,-10.344849c8.931129,-6.896606 7.222189,-7.159058 8.93105,-10.344849c2.41675,-4.505371 12.609606,-12.021606 22.327664,-13.793091c4.346134,-0.792236 5.773372,-1.01001 8.93105,-3.448364c3.157598,-2.438354 7.562143,-5.030273 13.396614,-6.896484c4.12561,-1.31958 6.514379,-2.391235 8.93105,-6.896606c3.4178,-6.371582 1.307966,-11.354858 4.465564,-13.793091c3.157598,-2.438354 8.93105,-3.448242 13.396614,-6.896606c0,0 4.465485,0 4.465485,-3.448242c0,-3.448242 0,-6.896606 0,-10.344849c0,-3.448242 5.109984,-6.669434 8.931129,-13.793091c5.404015,-10.074341 4.465485,-20.689697 4.465485,-24.137939c0,-3.448303 0,-3.448303 0,-6.896606c0,-3.448303 0,-6.896545 0,-10.344849c0,0 0,-3.448242 0,-6.896545c0,-3.448303 0,-6.896545 0,-6.896545c0,-3.448303 -0.830639,-5.836365 -8.93105,-10.344849c-5.123183,-2.85144 -8.93105,-3.448303 -8.93105,-3.448303c-4.465564,0 -8.93105,0 -13.396614,-3.448242c-4.465564,-3.448303 -3.096579,-5.030396 -8.93105,-6.896545c-4.12561,-1.31958 -8.93105,0 -13.396614,0c0,0 0,-3.448303 -4.465564,-6.896606c-4.465485,-3.448242 -13.396535,-10.344788 -13.396535,-10.344788c-4.465564,0 -9.2895,2.37677 -22.327743,0c-19.436196,-3.543091 -22.667618,-9.025269 -26.793149,-10.344849c-5.83455,-1.866211 -4.465564,-6.896606 -4.465564,-6.896606c-13.396614,-20.689636 -16.493193,-36.06488 -22.327664,-37.93103c-4.12561,-1.31958 -1.307887,4.458252 -4.465485,6.896545c-3.157598,2.438293 -8.931129,-3.448303 -8.931129,-6.896545c0,-3.448303 -4.465485,-3.448303 -8.93105,-3.448303c-4.465564,0 -8.93105,0 -8.93105,3.448303c0,0 0,3.448242 0,3.448242c-4.465564,0 -13.396614,-3.448242 -17.862179,-3.448242c0,0 -4.584916,0.792236 -8.93105,0c-9.718137,-1.771545 -8.93105,-3.448303 -13.396614,-3.448303c-4.465485,0 -8.93105,0 -13.396535,0c0,0 -4.465564,0 -8.931129,0c-8.93105,0 -8.93105,3.448303 -8.93105,3.448303c0,3.448242 4.02839,9.73938 -4.465485,13.793091c-3.798619,1.812866 -1.047764,14.318115 -4.465564,20.689697c-2.41675,4.505371 -8.93105,3.448242 -8.93105,3.448242c-4.465564,0 -8.931129,0 -13.396614,0c-4.465564,0 -4.465564,3.448364 -22.327664,6.896606c-17.862179,3.448303 -14.70458,7.906555 -17.862179,10.344849c-6.315197,4.876587 -17.8621,-3.448303 -17.8621,0c0,3.448303 17.8621,0 17.8621,3.448242c0,3.448303 0.191595,2.449036 4.465564,3.448303c15.409861,3.602844 32.278497,2.937744 44.655328,6.896545c5.83455,1.866211 4.465564,3.448303 4.465564,6.896545c0,3.448303 0,6.896545 0,6.896545c0,3.448303 3.157598,4.458313 0,6.896606c-3.157598,2.438293 -14.70458,1.009949 -17.862179,3.448242c-3.157598,2.438293 -4.465485,3.448303 -13.396614,3.448303c0,0 -4.465485,0 -4.465485,3.448242c0,0 -5.238504,-0.507813 -8.93105,3.448303c-5.838423,6.255188 -8.931129,6.896545 -13.396614,6.896545c-4.465564,0 -10.239016,-2.438293 -13.396614,0c-3.157598,2.438293 0,3.448303 -4.465564,3.448303c-4.465485,0 -10.239016,1.009949 -13.396614,3.448242c-3.157598,2.438293 3.157598,4.458313 0,6.896606c-3.157598,2.438293 -1.307887,1.01001 -4.465485,3.448303c-3.157598,2.438354 -5.773372,7.906494 -8.93105,10.344849c-3.157598,2.438354 -4.465564,0 -8.931129,0c-4.465485,0 -8.93105,0 -8.93105,0c0,3.448242 -1.354047,6.101196 -4.465485,10.344727c-9.071584,12.372314 -9.368145,23.532593 -17.862179,27.586304c-3.79854,1.812866 -7.562143,-8.478638 -13.396614,-10.344849c-4.12561,-1.31958 -5.773451,2.438354 -8.93105,0c-3.157598,-2.438232 -4.80544,-4.767822 -8.93105,-3.448242c-5.834471,1.866211 -4.465525,3.448242 -8.931089,3.448242c0,0 -4.465525,0 -8.93105,0c-8.931089,0 -13.396575,3.448242 -17.862139,6.896606c-4.465485,3.448242 -6.51434,4.505371 -8.93105,0c-1.70894,-3.185913 -4.465564,-6.896606 -8.931089,-6.896606c-4.465525,0 -4.465525,3.448242 -4.465525,6.896606c0,0 -1.307927,-5.886719 -4.465525,-3.448364c-6.315276,4.876587 -5.773491,12.783203 -8.931089,10.344849c-3.157559,-2.438232 0,-6.896484 -4.465525,-3.448242c0,0 -4.465525,3.448242 -8.93105,3.448242c-4.465564,0 -8.931089,0 -13.396614,0c-4.465525,0 -8.931089,0 -13.396614,0c0,0 -4.465485,0 -8.93105,3.448364c-8.93101,6.896606 -14.70458,7.906494 -17.862139,10.344727c-3.157598,2.438354 -8.93105,0 -8.93105,-3.448242c0,0 -3.923266,1.701538 -17.862139,3.448242c-4.407904,0.552368 -8.931129,0 -13.396614,-6.896484c-4.465564,-6.896606 -1.307966,-7.906616 -4.465525,-10.344849c-3.157598,-2.438354 -8.931089,0 -13.396614,0c-4.465525,0 1.849751,-2.02002 -4.465525,-6.896606c-3.157598,-2.438354 -9.271004,-1.31958 -13.396614,0c-5.83455,1.866211 -9.05052,4.240601 -13.396575,3.448364c-9.718177,-1.771606 -5.773531,-7.906616 -8.931089,-10.344849c-3.157598,-2.438354 -11.546903,4.876587 -17.862139,0c-3.157677,-2.438354 0,-13.793213 0,-27.586304c0,-3.448242 -0.461756,-7.219482 -4.465525,-3.448242c-10.207676,9.614868 -8.93105,6.896606 -8.93105,6.896606c-4.465564,-3.448364 -4.465564,-3.448364 -8.931089,-3.448364c-8.93105,0 -10.979865,-2.391113 -13.396614,-6.896484c-1.7089,-3.185791 -4.465525,-3.448303 -4.465525,-3.448303c0,-3.448303 4.02839,-9.739441 -4.465525,-13.793152c-3.798619,-1.812866 -8.93105,0 -8.93105,0c-4.465564,0 -9.271004,1.31958 -13.396614,0c-5.834471,-1.86615 -4.80544,-5.576904 -8.931089,-6.896545c-5.834491,-1.866211 -5.773432,-4.458252 -8.93105,-6.896545c-3.157638,-2.438293 0,-6.896545 -4.465525,-6.896545c0,0 -6.51434,1.057129 -8.93107,-3.448303c-1.70888,-3.185791 -4.465545,-6.896545 -8.93107,-6.896545c0,0 -4.465545,0 -4.465545,-3.448303c0,-3.448242 0,-6.896545 0,-6.896545c0,-6.896545 0,-13.793091 0,-17.241394c0,-3.448303 0,-10.344849 0,-10.344849c0,-3.448303 -8.93105,-3.448303 -8.93105,-6.896545c0,-3.448303 0,-6.896545 -4.465545,-6.896545c0,0 -0.339915,-2.128723 -4.465525,-3.448303c-5.83453,-1.866211 -5.773471,-4.458252 -8.93107,-6.896545c-3.157638,-2.438293 -4.465545,-3.448303 -4.465545,-3.448303c0,0 -4.465525,0 -8.93107,0c-4.465525,0 -8.93105,0 -8.93105,0c-4.465545,0 -8.93107,0 -13.396614,0c-4.465525,0 -5.773491,-1.009949 -8.93107,-3.448242c-3.157598,-2.438293 -17.661929,5.341919 -22.327664,17.241394c-2.58807,6.600647 0,10.344788 -4.465525,10.344788c-4.465545,0 -4.465545,0 -8.93107,0c-4.465545,0 -5.132471,1.635437 -8.93107,3.448303c-8.493935,4.053711 -10.979865,5.839417 -13.396595,10.344849c-1.70889,3.185791 -4.465545,3.448303 -4.465545,3.448303c-4.465525,6.896545 -4.465525,10.344788 -8.93106,13.793091c-4.465535,3.448303 -8.93107,0 -8.93107,0c-4.465535,-3.448303 -4.465535,0 -4.465535,0c0,3.448303 -4.465535,6.896545 -8.93107,6.896545c-4.465535,0 -6.51433,2.391174 -8.93106,6.896545c-1.70891,3.185791 1.368986,11.926941 -4.465535,13.793152c-4.12561,1.31958 -3.092558,4.089661 -8.93107,10.344849c-3.692566,3.956055 0.798993,-4.478271 -13.396604,-10.344849c-3.937147,-1.627075 -8.93106,0 -8.93106,6.896545c0,6.896545 -2.413618,7.081055 -4.46554,13.793091c-2.294133,7.504395 -8.931065,6.896606 -13.396599,6.896606c0,0 -5.132461,1.812927 -8.93107,0c-16.987924,-8.107422 -31.720485,-27.263245 -35.724266,-31.034546c-10.207654,-9.614929 -5.773438,1.01001 -8.931068,3.448303c-3.157609,2.438293 -4.465534,0 -4.465534,3.448242c0,3.448303 -4.465533,3.448303 -4.465533,6.896606c0,3.448242 0,3.448242 -4.465534,3.448242c-4.465534,0 -8.931067,0 -8.931067,0c0,10.344849 -0.666923,11.980286 -4.465534,13.793152c-8.493939,4.05365 -5.77338,11.354797 -8.931067,13.793152c-3.157609,2.438354 -4.465534,10.344727 -4.465534,13.793091c0,0 -4.465485,6.896484 0,6.896484c4.465485,0 0,0 0,3.448364c0,3.448242 0,6.896484 0,10.344849c0,3.448242 0,6.896484 0,6.896484c0,3.448364 0,6.896606 0,10.344849c0,3.448242 -1.307924,1.009888 -4.465535,3.448242c-3.157687,2.438354 1.849729,8.916626 -4.465532,13.793213c-3.157611,2.438354 -4.465535,3.448242 -4.465535,6.896484c0,3.448364 -2.0488,5.839478 -4.465532,10.344849c-5.126696,9.557373 1.708878,17.503906 0,20.689697c-2.416735,4.505371 -8.93107,10.344849 -8.93107,13.793091c0,3.448364 -1.307922,1.01001 -4.46553,3.448364c-3.157574,2.438232 0,6.896484 0,10.344727c0,3.448364 1.70894,10.6073 0,13.793213c-2.416735,4.505371 -4.465535,3.448242 -4.465535,6.896484c0,3.448364 0,10.344849 0,10.344849c4.465535,0 4.465535,0 13.396599,0c8.931067,0 10.238991,-2.438354 13.396602,0c3.157687,2.438354 1.307924,4.458252 4.465532,6.896606c3.157576,2.438232 5.132461,5.083618 8.931068,6.896484c8.493989,4.053711 12.612578,3.785889 17.862135,10.344849c2.347736,2.93335 0,3.448364 4.465534,3.448364c4.465534,0 4.465565,0 8.931067,6.896484c4.465564,6.896606 0.000048,13.793091 4.465534,13.793091c4.465485,0 1.307846,-11.354736 4.465534,-13.793091c3.157611,-2.438354 5.773491,7.906616 8.931067,10.344849c3.157611,2.438354 4.465535,3.448242 4.465535,6.896606c0,0 3.807904,-4.045288 8.931065,-6.896606c8.10046,-4.508423 12.370651,-3.355957 13.396604,0c2.294133,7.504395 4.46553,10.344849 4.46553,10.344849c0,6.896606 0,10.344849 0,13.793091c0,0 0,3.448364 0,10.344849c0,3.448364 0,3.448364 0,6.896606c0,6.896484 0,10.344849 0,17.241333c0,3.448364 0,6.896606 0,13.793213c0,6.896484 0.339915,18.560913 4.465535,17.241333c5.834476,-1.866211 4.805449,-8.216064 8.93107,-6.896484c5.834476,1.866211 6.514335,5.839355 8.931065,10.344727c1.708935,3.185913 4.46554,3.448364 4.46554,10.344849c0,6.896606 0,10.344849 0,17.241455c0,0 0,3.448242 0,10.344849c0,3.448242 0,3.448242 0,6.896484c0,3.448364 4.465525,6.896606 8.93106,10.344849c0,0 0,3.448364 0,6.896606c0,3.448242 0,6.896606 0,6.896606c0,0 8.93107,-6.896606 13.396604,-6.896606c4.465535,0 6.517442,7.081055 4.465535,13.793091c-2.294138,7.504395 -8.93107,20.689697 -8.93107,31.034546c0,3.448242 -4.465535,3.448242 -8.93107,3.448242c-4.465535,0 -3.157579,-1.01001 0,-3.448242c3.157608,-2.438354 4.465535,3.448242 4.465535,6.896484c0,3.448364 0,6.896606 4.465535,6.896606c0,0 0,-3.448242 0,0c0,3.448242 0,6.896606 4.465535,6.896606c13.396604,0 40.189803,-6.896606 49.120873,-6.896606c0,0 5.773451,-2.438354 8.93107,0c6.315256,4.876587 0,17.241455 0,20.689697c0,3.448242 0,6.896606 0,10.344849c0,0 -3.157687,7.906494 0,10.344849c3.157598,2.438354 5.773451,1.009888 8.93107,3.448242c3.157579,2.438232 0,10.344849 0,13.793091c0,3.448364 -3.157579,5.886597 0,3.448364c6.315197,-4.876587 15.44539,-1.057129 17.862119,3.448242c1.70888,3.185791 0,10.344849 0,17.241333c0,0 2.048815,2.391235 4.465545,6.896606c5.126701,9.557373 0,20.689697 0,34.482788c0,6.896606 -3.157579,11.354858 0,13.793091c3.157598,2.438354 4.465525,3.448364 4.465525,3.448364c0,3.448242 0,6.896484 0,10.344849c0,3.448242 1.307966,4.458252 4.465545,6.896484c3.157598,2.438354 1.307848,4.458252 4.465525,6.896606c3.157618,2.438354 8.93107,0 31.258734,0c22.327664,0 26.912659,-0.792236 31.258734,0c9.718098,1.771484 8.93107,6.896484 8.93107,10.344849c0,6.896484 3.157677,7.906494 0,10.344849c-3.157598,2.438354 -4.465525,3.448242 -4.465525,6.896484c0,3.448242 0,6.896606 0,13.793091c0,3.448364 4.465525,3.448364 8.93107,3.448364c8.93105,0 13.396595,0 13.396595,0c0,3.448242 0,13.793091 0,20.689697c0,3.448242 0,3.448242 4.465525,3.448242c4.465545,0 8.93107,0 13.396614,-3.448242c0,0 4.80544,-1.31958 8.93107,0c5.834451,1.866211 11.336635,-2.091187 22.327644,-6.896606c16.021992,-7.005005 22.327664,-3.448242 22.327664,-3.448242c4.465564,0 4.465604,-3.448364 8.931089,-10.344849c8.931129,-13.793213 10.239055,-18.251465 13.396614,-20.689697c3.157598,-2.438354 8.93105,0 8.93105,3.448242c0,3.448242 -3.157677,4.458252 0,6.896606c3.157598,2.438354 4.465525,0 8.93105,0c4.465564,0 5.773491,1.009888 8.931089,3.448242c3.157559,2.438232 0,6.896606 4.465525,6.896606c0,0 13.396614,0 31.258753,0c4.465525,0 4.465525,3.448242 4.465525,6.896484c0,3.448364 0,6.896606 0,6.896606c0,0 0,3.448242 0,6.896606c0,3.448242 0,6.896484 0,6.896484c-4.465525,0 -4.465525,3.448242 -4.465525,6.896606c0,3.448242 -4.465564,3.448242 -4.465564,6.896484c0,3.448364 0,6.896606 0,10.344849c0,3.448364 -1.307927,1.01001 -4.465525,3.448364c-3.157559,2.438232 0,6.896484 0,10.344727c0,3.448364 0,3.448364 -4.465525,3.448364l0,0l0,-3.448364l-4.465525,-6.896484" id="svg_15" fill-opacity="null" stroke-opacity="null" stroke-width="1.5" fill="none"/>
  <path d="m522.413818,1643.078247c0,0 0,0 0,3.448364c0,3.448242 1.31958,3.710693 0,6.896484c-1.866211,4.505371 -6.896606,3.448242 -10.344849,3.448242c0,0 -1.582092,2.391235 -3.448273,6.896606c-1.31958,3.185791 -0.262482,2.128662 -3.448303,3.448242c-4.505432,1.866211 -8.478638,2.391235 -10.344818,6.896606c-1.31958,3.185791 0,6.896606 0,6.896606c-3.448303,3.448242 -6.896576,3.448242 -6.896576,3.448242c-3.448273,0 -3.448273,3.448242 -6.896545,3.448242c0,0 -3.448273,0 -6.896576,0c-6.896545,0 -6.896545,3.448364 -6.896545,6.896606c0,3.448242 0,3.448242 0,3.448242c0,3.448242 0.17749,4.478271 -3.448273,10.344849c-4.053711,6.55896 -6.896576,3.448242 -6.896576,6.896606c0,3.448242 -1.01001,4.458252 -3.448273,6.896484c-2.438293,2.438354 -6.896545,3.448364 -6.896545,3.448364c-3.448303,3.448242 -3.448303,6.896484 -3.448303,10.344727c0,3.448364 0,3.448364 0,6.896606c0,3.448242 3.448303,6.896606 3.448303,10.344849c0,0 0,3.448242 3.448273,3.448242c3.448273,0 2.391113,1.582153 6.896545,3.448364c3.185791,1.31958 10.344849,0 10.344849,3.448242c0,0 4.458252,-2.438354 6.896545,0c2.438263,2.438232 -2.438354,4.458252 0,6.896606c2.438324,2.438354 3.448303,3.448242 6.896576,6.896484c0,0 3.448273,0 6.896545,0c3.448273,0 3.448273,3.448242 6.896576,3.448242c0,0 0,3.448364 0,6.896606c0,0 3.448273,3.448242 6.896545,3.448242c6.896576,0 6.896576,3.448364 6.896576,3.448364c0,3.448242 1.009979,1.009888 3.448273,3.448242c2.438293,2.438232 0,6.896606 0,10.344849c0,0 0,3.448242 0,6.896606c0,3.448242 0,6.896484 0,6.896484c-3.448273,0 -1.009918,4.458252 -3.448273,6.896606c-2.438324,2.438354 -4.458282,1.009888 -6.896576,3.448242c-2.438263,2.438232 0,3.448242 -3.448273,3.448242c-3.448273,0 -5.468231,-4.876587 -10.344849,0c-2.438354,2.438354 -3.448273,10.344849 -6.896545,10.344849c0,0 0,3.448364 -3.448273,3.448364c-3.448303,0 -6.896576,0 -10.344849,0c0,0 -3.448273,0 -6.896576,0c-6.896545,0 -10.344818,0 -13.793091,0c-3.448303,0 -6.896576,0 -6.896576,0c-3.448273,0 -6.896545,0 -10.344849,0c0,0 0,-3.448364 -3.448273,-6.896606c0,0 -4.458252,2.438354 -6.896545,0c-2.438263,-2.438232 -4.458252,-1.009888 -6.896576,-3.448242c-2.438354,-2.438354 0,-3.448364 0,-3.448364c0,-3.448242 0,-6.896484 -3.448273,-6.896484c-3.448273,0 -6.896545,0 -10.344818,0c0,0 -3.448303,3.448242 -6.896576,3.448242c-3.448273,0 -6.896545,-3.448242 -6.896545,-6.896606c0,0 0,-3.448242 -3.448303,-3.448242c-3.448273,0 -6.896545,0 -6.896545,0c0,-3.448242 -1.009979,-4.45813 -3.448273,-6.896484c-2.438354,-2.438354 0,-6.896606 -3.448273,-6.896606c-3.448303,0 -6.896576,0 -10.344849,0c0,0 0,0 -3.448273,0c-3.448303,0 -8.478668,1.057129 -10.344849,-3.448242c-1.319641,-3.185913 1.31958,-3.710815 0,-6.896606c-1.86618,-4.505371 -2.128632,-3.710693 -3.448273,-6.896606c-1.86618,-4.505371 -6.896576,-6.896484 -10.344849,-6.896484c-3.448273,0 -6.896545,3.448242 -10.344849,3.448242c-3.448273,0 -4.458252,2.438354 -6.896545,0c-2.438263,-2.438232 0,-6.896606 0,-6.896606c-3.448273,-3.448242 -4.458282,-7.906494 -6.896545,-10.344727c-2.438324,-2.438354 -4.458282,-2.438354 -6.896576,0c-2.438263,2.438232 -5.030365,4.505371 -6.896545,0c-2.639221,-6.371582 0,-17.241455 -3.448303,-17.241455c0,0 -1.582092,1.057129 -3.448273,-3.448242c-1.319641,-3.185913 -0.337494,-13.187744 -6.896545,-17.241455c-2.933258,-1.812866 -3.448273,-3.448242 -3.448273,-3.448242c0,-3.448242 -3.448303,-3.448242 -10.344849,-3.448242c-3.448273,0 -6.896576,0 -10.344833,0c-3.448288,0 -3.448288,-6.896606 -6.896561,-13.793213c0,0 -2.391098,5.314575 -6.896561,3.448364c-3.185883,-1.31958 0,-17.241455 -3.448288,-17.241455c-3.448273,0 -1.009995,-1.01001 -3.448273,-3.448242c-2.438309,-2.438354 -6.896561,0 -10.344833,0c-3.448288,0 -3.448288,-3.448242 -3.448288,-6.896606c0,0 -3.448273,0 -6.896561,0c-3.448273,0 -6.896561,-3.448242 -6.896561,-3.448242c0,0 -3.448273,0 -6.896561,0c-6.896545,0 -6.896545,6.896606 -10.344833,6.896606c-3.448273,0 -1.009995,-4.458374 -3.448273,-6.896606c-2.438309,-2.438354 -6.896561,0 -6.896561,0c0,-3.448242 -3.448288,-3.448242 -6.896561,-3.448242c-3.448273,0 -6.896561,0 -6.896561,0c-3.448273,0 -5.839462,1.582031 -10.344833,3.448242c-3.185806,1.31958 -3.448288,0 -6.896561,0c-3.448288,0 -1.01001,1.01001 -3.448288,3.448242c-2.438293,2.438354 -5.576904,0.262451 -6.896545,3.448364c-1.866196,4.505371 -3.448288,6.896484 -6.896561,6.896484c-3.448288,0 -2.128723,0.262451 -3.448288,3.448242c-1.866188,4.505493 -3.448273,10.344849 -3.448273,10.344849c-3.44828,0 2.438278,-2.438232 0,0c-2.438301,2.438354 -4.45826,1.01001 -6.896561,3.448364c-4.876549,4.876587 -4.87664,1.428223 0,-3.448364c4.876602,-4.876587 7.404427,0.596924 3.44828,3.448364c-6.255127,4.508423 -10.344841,10.344849 -13.793121,10.344849c-3.44828,0 -7.906555,4.458252 -10.344833,6.896484c-2.438301,2.438354 -8.478645,-1.057129 -10.344841,3.448242c-1.319641,3.185913 -3.44828,3.448364 -3.44828,6.896606c0,3.448242 -1.009918,4.458252 -3.44828,6.896606c-2.438301,2.438354 -2.438301,1.009888 0,3.448242c2.438278,2.438232 -7.159042,5.577026 -10.344833,6.896606c-4.505379,1.866211 -13.793121,6.896484 -13.793121,6.896484c-3.44828,3.448364 -5.681061,10.250122 -20.689678,13.793091c-6.71207,1.584473 -6.896557,0 -6.896557,0c0,0 0.322987,3.804932 -3.44828,6.896606c-9.614952,7.882324 -10.344838,6.896606 -10.344838,10.344849c0,6.896606 -3.804853,10.021851 -6.896558,13.793091c-7.88238,9.614868 -9.287743,11.92688 -13.793118,13.793091c-3.185799,1.31958 -6.896559,3.448364 -6.896559,3.448364c-3.448279,0 -6.89656,0 -10.344838,0l0,-6.896606l-3.44828,-6.896484" id="svg_18" fill-opacity="null" stroke-opacity="null" stroke-width="1.5" stroke="#000" fill="none"/>
  <path d="m674.138123,1636.181763c0,0 0,0 -3.448303,0c0,0 -0.262512,2.128662 -3.448303,3.448242c-4.505371,1.866211 -4.472351,5.564941 -13.793091,13.793091c-5.780457,5.102905 -10.344849,6.896606 -10.344849,10.344849c0,3.448242 0,6.896606 0,6.896606c0,3.448242 3.448303,3.448242 3.448303,3.448242c3.448242,0 6.896545,0 6.896545,3.448242c0,3.448364 -2.438293,5.886597 0,3.448364c2.438293,-2.438354 4.458252,-7.906616 6.896545,-10.344849c2.438293,-2.438354 6.896545,0 13.793152,-3.448364c0,0 -2.438293,-4.458252 0,-6.896484c2.438293,-2.438232 2.391174,-5.030396 6.896545,-6.896606c3.185791,-1.31958 6.896545,0 6.896545,0c0,-3.448242 1.01001,-4.45813 3.448303,-6.896484c2.438354,-2.438354 3.448242,-3.448364 3.448242,-3.448364c0,-3.448242 3.448303,-3.448242 3.448303,-6.896484l0,-3.448364l3.448242,-3.448242l0,0" id="svg_19" fill-opacity="null" stroke-opacity="null" stroke-width="1.5" stroke="#000" fill="none"/>
  <path d="m608.620789,1739.630127c0,0 0,-3.448364 0,-3.448364c-3.448303,3.448364 -3.448303,3.448364 -3.448303,3.448364c-3.448242,6.896484 -5.576904,7.158936 -6.896545,10.344849c-1.86615,4.505371 -6.896545,3.448242 -6.896545,3.448242c0,3.448242 0,6.896606 0,10.344849c0,3.448242 0,3.448242 0,3.448242c3.448303,0 10.344849,0 10.344849,3.448364c0,3.448242 0,6.896484 0,10.344727c0,0 -3.448303,0 0,0c3.448242,0 1.009888,1.01001 3.448242,3.448364c2.438293,2.438354 7.159058,-1.31958 10.344849,0c4.505371,1.866211 3.448303,3.448242 6.896545,3.448242c6.896606,0 13.793152,0 17.241394,0c3.448303,0 6.896606,0 6.896606,0c3.448242,0 6.896545,0 10.344849,0c3.448242,0 4.089661,1.060181 10.344788,-3.448242c3.956177,-2.85144 6.988831,-2.656128 10.344849,-3.448364c7.504272,-1.771484 12.735962,-11.92688 17.241394,-13.793091c3.185791,-1.31958 0.000061,6.896606 3.448303,6.896606c3.448242,0 0,-6.896606 0,-6.896606c0,-3.448242 -4.458252,-1.01001 -6.896545,-3.448242c-4.876648,-4.876587 0.88446,-9.644897 3.448242,-13.793091c5.732788,-9.275879 3.448303,-10.344849 3.448303,-13.793213c0,-3.448242 -4.458252,-1.01001 -6.896545,-3.448242c-2.438293,-2.438232 0,-6.896484 0,-6.896484c-3.448303,0 -3.448303,0 -6.896606,0c-10.344788,0 -13.793091,0 -17.241394,0c-3.448242,0 -3.448242,-3.448364 -3.448242,-10.344849c0,-3.448364 -3.448303,-3.448364 -3.448303,-3.448364c-3.448242,0 -7.906555,-2.438354 -10.344849,0c-2.438354,2.438354 -3.448242,3.448364 -3.448242,3.448364c-3.448303,0 -3.448303,3.448242 -6.896606,3.448242c-3.448242,0 -5.839355,5.030396 -10.344788,6.896606c-3.185791,1.31958 -4.458313,4.458252 -6.896606,6.896484c-2.438293,2.438232 -3.448242,3.448242 -3.448242,3.448242c-3.448303,3.448364 -7.158997,2.128784 -10.344849,3.448364c-4.505371,1.866211 -4.458252,9.334717 -6.896545,6.896484c-2.438293,-2.438232 1.009949,-4.458252 3.448242,-6.896484c2.438354,-2.438354 3.448303,-3.448364 0,-3.448364l-3.448242,0l-6.896545,0l0,-3.448242" id="svg_20" fill-opacity="null" stroke-opacity="null" stroke-width="1.5" stroke="#000" fill="none"/>
  <path d="m1050.00061,1546.526489c0,0 0,0 0,3.448242c0,3.448242 -3.448364,3.448242 -3.448364,6.896606c0,3.448242 -2.840454,5.125 -10.344849,6.896484c-3.355957,0.792236 -3.448242,3.448364 -3.448242,6.896606c0,0 0,3.448242 -3.448242,3.448242c0,0 -0.262451,2.12854 -3.448364,3.448242c-4.505432,1.866211 -4.458191,4.458374 -6.896484,6.896606c-2.438293,2.438354 -6.896606,0 -6.896606,3.448242c0,0 2.438293,4.458374 0,6.896606c-2.438293,2.438232 -4.458252,1.009888 -6.896545,3.448242c-2.438354,2.438354 -0.515015,1.635498 -3.448242,3.448364c-6.55896,4.053589 -6.896606,10.344849 -10.344849,13.793091c0,0 -8.762756,-1.057129 -6.896606,3.448242c1.31958,3.185791 3.448303,3.448242 3.448303,6.896606c0,3.448242 -1.01001,1.009888 -3.448303,3.448242c-4.876648,4.876587 -4.458252,7.906494 -6.896545,10.344849c-2.438293,2.438232 0,3.448242 0,3.448242c0,3.448364 -3.448242,3.448364 -3.448242,6.896606c0,3.448242 0,6.896484 3.448242,6.896484c0,0 3.448303,0 3.448303,0c0,3.448364 -3.448303,6.896606 -3.448303,10.344849c0,3.448364 -3.448242,0.000122 -3.448242,3.448364c0,3.448242 3.448242,0 6.896545,0c3.448242,0 6.896545,0 6.896545,0c0,-3.448364 3.448303,-6.896606 6.896545,-10.344849c3.448303,-3.448364 4.458313,-4.458374 6.896606,-6.896606c2.438293,-2.438232 0.337585,-2.842896 6.896545,-6.896484c2.933228,-1.812866 4.458191,-1.01001 6.896545,-3.448364c2.438293,-2.438354 3.448303,0 3.448303,0c3.448242,0 3.448242,-6.896484 3.448242,-10.344849c0,-3.448242 1.009949,-1.01001 3.448242,-3.448242c2.438232,-2.438232 1.01001,-4.458252 3.448364,-6.896606c2.438232,-2.438232 3.448242,-6.896484 3.448242,-6.896484c0,0 1.01001,-7.906616 3.448242,-10.344849c2.438354,-2.438354 4.458374,-1.01001 6.896606,-3.448242c2.438354,-2.438354 2.128662,-7.159058 3.448242,-10.344849c1.866211,-4.505493 7.906616,-4.458374 10.344849,-6.896606c2.438232,-2.438232 0,-6.896606 0,-10.344849c0,-3.448242 2.128662,-10.6073 3.448242,-13.793091c1.866211,-4.505371 -1.428223,-8.916504 3.448364,-13.793091c2.438232,-2.438232 3.448242,-3.448364 3.448242,-6.896606c0,-3.448242 0,-6.896484 0,-6.896484c0,-3.448364 0,-6.896606 -3.448242,-6.896606c-3.448364,0 -3.448364,3.448242 -3.448364,3.448242c-3.448242,3.448364 -6.104248,3.540649 -6.896484,6.896606c-1.771484,7.504272 -6.896606,10.344849 -6.896606,10.344849c0,0 1.812866,3.963257 0,6.896484c-4.053589,6.559082 -10.344849,6.896606 -13.793091,6.896606l0,3.448242l0,0l-3.448242,0" id="svg_23" fill-opacity="null" stroke-opacity="null" stroke-width="1.5" stroke="#000" fill="none"/>
  <path id="svg_24" d="m211.137218,965.827976c-9.521849,0 -17.241397,9.490878 -17.241397,21.197612c0,11.709561 17.241397,51.216257 17.241397,51.216257s17.241397,-39.506696 17.241397,-51.216257c0,-11.706735 -7.717249,-21.197612 -17.241397,-21.197612zm0,31.327244c-4.54943,0 -8.239089,-4.533463 -8.239089,-10.129632s3.689659,-10.129632 8.239089,-10.129632s8.239089,4.536289 8.239089,10.129632s-3.689659,10.129632 -8.239089,10.129632z" stroke-width="1.5" stroke="#000" fill="#fff"/>
  <path id="svg_26" d="m828.724127,1284.911317c-9.521834,0 -17.24137,7.231128 -17.24137,16.150523c0,8.921549 17.24137,39.021818 17.24137,39.021818s17.24137,-30.100269 17.24137,-39.021818c0,-8.919396 -7.717237,-16.150523 -17.24137,-16.150523zm0,23.86832c-4.549423,0 -8.239076,-3.454059 -8.239076,-7.717797s3.689653,-7.717797 8.239076,-7.717797s8.239076,3.456212 8.239076,7.717797s-3.689653,7.717797 -8.239076,7.717797z" fill-opacity="null" stroke-opacity="null" stroke-width="1.5" stroke="#000" fill="none"/>
  <path id="svg_27" d="m708.637624,1525.086c-9.521858,0 -17.241414,7.683083 -17.241414,17.159953c0,9.479158 17.241414,41.460733 17.241414,41.460733s17.241414,-31.981576 17.241414,-41.460733c0,-9.47687 -7.717257,-17.159953 -17.241414,-17.159953zm0,25.360122c-4.549434,0 -8.239097,-3.669942 -8.239097,-8.200169s3.689663,-8.200169 8.239097,-8.200169s8.239097,3.67223 8.239097,8.200169s-3.689663,8.200169 -8.239097,8.200169z" fill-opacity="null" stroke-opacity="null" stroke-width="1.5" stroke="#000" fill="none"/>
  <path id="svg_28" d="m507.913351,1542.243595c-8.569675,0 -15.517277,6.779198 -15.517277,15.141151c0,8.363972 15.517277,36.58304 15.517277,36.58304s15.517277,-28.219068 15.517277,-36.58304c0,-8.361953 -6.945533,-15.141151 -15.517277,-15.141151zm0,22.376602c-4.094492,0 -7.415189,-3.238187 -7.415189,-7.235451s3.320697,-7.235451 7.415189,-7.235451s7.415189,3.240206 7.415189,7.235451s-3.320697,7.235451 -7.415189,7.235451z" fill-opacity="null" stroke-opacity="null" stroke-width="1.5" stroke="#000" fill="none"/>
  <path id="svg_33" d="m936.776223,938.379366c-6.665295,0 -12.068979,6.779201 -12.068979,15.141157c0,8.363975 12.068979,36.583054 12.068979,36.583054s12.068979,-28.219079 12.068979,-36.583054c0,-8.361956 -5.402075,-15.141157 -12.068979,-15.141157zm0,22.376611c-3.184601,0 -5.767363,-3.238189 -5.767363,-7.235454s2.582762,-7.235454 5.767363,-7.235454s5.767363,3.240208 5.767363,7.235454s-2.582762,7.235454 -5.767363,7.235454z" fill-opacity="null" stroke-opacity="null" stroke-width="1.5" stroke="#000" fill="none"/>
  <path id="svg_35" d="m211.137218,969.276255c-9.521849,0 -17.241397,9.490877 -17.241397,21.197612c0,11.709561 17.241397,51.216257 17.241397,51.216257s17.241398,-39.506696 17.241398,-51.216257c0,-11.706735 -7.71725,-21.197612 -17.241398,-21.197612zm0,31.327244c-4.54943,0 -8.239089,-4.533463 -8.239089,-10.129632s3.689659,-10.129633 8.239089,-10.129633s8.239089,4.536289 8.239089,10.129633s-3.689659,10.129632 -8.239089,10.129632z" stroke-width="1.5" stroke="#000000" fill="#ffffff"/>
  <path id="svg_36" d="m298.602681,1322.655507c-6.665293,0 -12.068976,5.875311 -12.068976,13.122345c0,7.248783 12.068976,31.705335 12.068976,31.705335s12.068976,-24.456552 12.068976,-31.705335c0,-7.247034 -5.402074,-13.122345 -12.068976,-13.122345zm0,19.393076c-3.1846,0 -5.767361,-2.806432 -5.767361,-6.270731s2.582761,-6.270731 5.767361,-6.270731s5.767361,2.808182 5.767361,6.270731s-2.582761,6.270731 -5.767361,6.270731z" fill-opacity="null" stroke-opacity="null" stroke-width="1.5" stroke="#000" fill="none"/>
  <path id="svg_37" d="m655.448547,811.430813c-8.569664,0 -15.517257,7.683091 -15.517257,17.159971c0,9.479168 15.517257,41.460777 15.517257,41.460777s15.517257,-31.981609 15.517257,-41.460777c0,-9.47688 -6.945524,-17.159971 -15.517257,-17.159971zm0,25.360149c-4.094487,0 -7.41518,-3.669946 -7.41518,-8.200178s3.320693,-8.200178 7.41518,-8.200178s7.41518,3.672234 7.41518,8.200178s-3.320693,8.200178 -7.41518,8.200178z" fill-opacity="null" stroke-opacity="null" stroke-width="1.5" stroke="#000" fill="none"/>
  <path id="svg_38" d="m73.878181,1435.879824c-7.61748,0 -13.793119,8.135032 -13.793119,18.169369c0,10.036759 13.793119,43.899618 13.793119,43.899618s13.793119,-33.862859 13.793119,-43.899618c0,-10.034337 -6.1738,-18.169369 -13.793119,-18.169369zm0,26.851905c-3.639544,0 -6.591272,-3.885822 -6.591272,-8.682536s2.951728,-8.682536 6.591272,-8.682536s6.591272,3.888245 6.591272,8.682536s-2.951728,8.682536 -6.591272,8.682536z" fill-opacity="null" stroke-opacity="null" stroke-width="1.5" stroke="#000" fill="none"/>
  <path id="svg_39" d="m362.101687,1658.898233c-9.521858,0 -17.241413,8.135036 -17.241413,18.169378c0,10.036764 17.241413,43.899639 17.241413,43.899639s17.241413,-33.862875 17.241413,-43.899639c0,-10.034342 -7.717256,-18.169378 -17.241413,-18.169378zm0,26.851917c-4.549434,0 -8.239096,-3.885824 -8.239096,-8.68254s3.689662,-8.68254 8.239096,-8.68254s8.239096,3.888247 8.239096,8.68254s-3.689662,8.68254 -8.239096,8.68254z" fill-opacity="null" stroke-opacity="null" stroke-width="1.5" stroke="#000" fill="none"/>
  <path stroke="#634560" id="svg_40" d="m418.706479,1185.41278c-8.569663,0 -15.517256,8.135034 -15.517256,18.169371c0,10.036761 15.517256,43.899623 15.517256,43.899623s15.517257,-33.862862 15.517257,-43.899623c0,-10.034337 -6.945524,-18.169371 -15.517257,-18.169371zm0,26.851908c-4.094487,0 -7.41518,-3.885823 -7.41518,-8.682537s3.320693,-8.682536 7.41518,-8.682536s7.41518,3.888245 7.41518,8.682536c-2.471727,2.894179 -4.943453,5.788358 -7.41518,8.682537z" fill-opacity="0" stroke-width="1.5" fill="#ffffff"/>
  <path id="svg_41" d="m634.862093,1689.777045c-8.569671,0 -15.517269,7.23115 -15.517269,16.150574c0,8.921577 15.517269,39.021941 15.517269,39.021941s15.517269,-30.100364 15.517269,-39.021941c0,-8.919424 -6.94553,-16.150574 -15.517269,-16.150574zm0,23.868395c-4.09449,0 -7.415186,-3.454069 -7.415186,-7.717821s3.320696,-7.717821 7.415186,-7.717821s7.415186,3.456223 7.415186,7.717821s-3.320696,7.717821 -7.415186,7.717821z" fill-opacity="null" stroke-opacity="null" stroke-width="1.5" stroke="#000" fill="none"/>
  <path id="svg_42" d="m1005.413687,1552.534488c-8.569651,0 -15.517234,8.135051 -15.517234,18.169412c0,10.036783 15.517234,43.899722 15.517234,43.899722s15.517234,-33.862938 15.517234,-43.899722c0,-10.034361 -6.945514,-18.169412 -15.517234,-18.169412zm0,26.851968c-4.094481,0 -7.415169,-3.885832 -7.415169,-8.682556s3.320688,-8.682556 7.415169,-8.682556s7.415169,3.888254 7.415169,8.682556s-3.320688,8.682556 -7.415169,8.682556z" fill-opacity="null" stroke-opacity="null" stroke-width="1.5" stroke="#000" fill="none"/>
  <ellipse stroke="#634560" ry="16" rx="16" id="svg_44" cy="650" cx="450" fill-opacity="0" stroke-opacity="null" stroke-width="1.5" fill="#ffffff"/>
  <ellipse ry="16" rx="16" id="svg_45" cy="649.973805" cx="630" fill-opacity="0" stroke-opacity="null" stroke-width="1.5" stroke="#634560" fill="#ffffff"/>
  <path id="svg_46" d="m318.965315,553.421981" opacity="0.5" stroke-width="1.5" stroke="#000" fill="none"/>
  <line stroke="#634560" stroke-linecap="null" stroke-linejoin="null" id="svg_56" y2="623" x2="644.621231" y1="624" x1="435.378776" fill-opacity="0" stroke-opacity="null" stroke-width="1.5" fill="none"/>
  <line stroke-linecap="null" stroke-linejoin="null" id="svg_61" y2="604.345771" x2="671.881743" y1="623.186287" x1="646" fill-opacity="0" stroke-opacity="null" stroke-width="1.5" stroke="#634560" fill="none"/>
  <line transform="rotate(-12 423.95581054687483,613.6728515624998) " stroke-linecap="null" stroke-linejoin="null" id="svg_62" y2="604.345771" x2="413.911606" y1="623" x1="434" fill-opacity="0" stroke-opacity="null" stroke-width="1.5" stroke="#634560" fill="none"/>
 </g>
</svg>